<svg width="32" height="38" viewBox="0 0 32 38" fill="none" xmlns="http://www.w3.org/2000/svg">
<path d="M0 10.6666C0 10.1143 0.447715 9.66663 1 9.66663C1.55228 9.66663 2 10.1143 2 10.6666V27C2 27.5522 1.55228 28 1 28C0.447715 28 0 27.5522 0 27V10.6666Z" fill="black"/>
<path d="M0 5C0 4.44772 0.447715 4 1 4C1.55228 4 2 4.44772 2 5V8C2 8.55228 1.55228 9 1 9C0.447715 9 0 8.55228 0 8V5Z" fill="black"/>
<path d="M5 3.66663C5 3.11434 5.44772 2.66663 6 2.66663C6.55228 2.66663 7 3.11434 7 3.66663V7.33329C7 7.88558 6.55228 8.33329 6 8.33329C5.44772 8.33329 5 7.88558 5 7.33329V3.66663Z" fill="black"/>
<path d="M10 2C10 1.44772 10.4477 1 11 1C11.5523 1 12 1.44772 12 2V6.33333C12 6.88562 11.5523 7.33333 11 7.33333C10.4477 7.33333 10 6.88562 10 6.33333V2Z" fill="black"/>
<path d="M5 13.6667C5 13.1144 5.44772 12.6667 6 12.6667C6.55228 12.6667 7 13.1144 7 13.6667V30C7 30.5523 6.55228 31 6 31C5.44772 31 5 30.5523 5 30V13.6667Z" fill="black"/>
<path d="M10 15.6667C10 15.1144 10.4477 14.6667 11 14.6667C11.5523 14.6667 12 15.1144 12 15.6667V32.6667C12 33.219 11.5523 33.6667 11 33.6667C10.4477 33.6667 10 33.219 10 32.6667V15.6667Z" fill="black"/>
<path d="M15 0.999998C15 0.447714 15.4477 0 16 0C16.5523 0 17 0.447715 17 1V36.3333C17 36.8856 16.5523 37.3333 16 37.3333C15.4477 37.3333 15 36.8856 15 36.3333V0.999998Z" fill="black"/>
<path d="M20 2C20 1.44771 20.4477 1 21 1C21.5523 1 22 1.44772 22 2V18.6667C22 19.219 21.5523 19.6667 21 19.6667C20.4477 19.6667 20 19.219 20 18.6667V2Z" fill="black"/>
<path d="M25 3.33337C25 2.78109 25.4477 2.33337 26 2.33337C26.5523 2.33337 27 2.78109 27 3.33337V20C27 20.5523 26.5523 21 26 21C25.4477 21 25 20.5523 25 20V3.33337Z" fill="black"/>
<path d="M30 5C30 4.44772 30.4477 4 31 4C31.5523 4 32 4.44772 32 5V21.3333C32 21.8856 31.5523 22.3333 31 22.3333C30.4477 22.3333 30 21.8856 30 21.3333V5Z" fill="black"/>
<path d="M20 28.3333C20 27.781 20.4477 27.3333 21 27.3333C21.5523 27.3333 22 27.781 22 28.3333V32.6666C22 33.2189 21.5523 33.6666 21 33.6666C20.4477 33.6666 20 33.2189 20 32.6666V28.3333Z" fill="black"/>
<path d="M24.667 26.3333C24.667 25.781 25.1147 25.3333 25.667 25.3333C26.2193 25.3333 26.667 25.781 26.667 26.3333V30.3333C26.667 30.8856 26.2193 31.3333 25.667 31.3333C25.1147 31.3333 24.667 30.8856 24.667 30.3333V26.3333Z" fill="black"/>
<path d="M29.667 24.3333C29.667 23.781 30.1147 23.3333 30.667 23.3333C31.2193 23.3333 31.667 23.781 31.667 24.3333V27.3333C31.667 27.8856 31.2193 28.3333 30.667 28.3333C30.1147 28.3333 29.667 27.8856 29.667 27.3333V24.3333Z" fill="black"/>
</svg>
